<svg width="73" height="67" viewBox="0 0 73 67" fill="none" xmlns="http://www.w3.org/2000/svg">
<path fill-rule="evenodd" clip-rule="evenodd" d="M28.3717 35.4833C27.486 35.9864 26.5018 36.3736 25.5209 36.5672C24.6353 36.8778 23.6511 36.9746 22.6702 36.9746C21.0892 36.9746 19.4332 36.5672 17.7571 35.5801C16.0798 34.6898 14.4047 33.4112 12.9402 31.7454C13.7105 32.3465 14.5973 32.7325 15.6946 32.9261C16.774 33.2165 17.8522 33.4101 19.0279 33.4101C20.0099 33.4101 20.9929 33.2165 21.8786 33.0229C22.8617 32.8293 23.8437 32.5401 24.6341 32.0538L24.0553 30.3678L27.7939 33.7005L28.3717 35.4833ZM15.0989 31.0487C13.2279 30.2744 11.7466 29.0735 10.8598 27.6981C9.87897 26.3047 9.49268 24.64 9.49268 22.7593C9.49268 20.1841 10.3772 17.8982 12.2471 16.0219C14.1158 14.1423 16.3698 13.1552 18.9327 13.1552C19.7221 13.1552 20.3189 13.252 20.9941 13.3488C21.5909 13.5627 22.1888 13.7562 22.6713 14.0455L23.267 12.3606L27.5834 16.4271L26.8131 18.112C26.12 17.6089 25.4269 17.3174 24.7327 17.1249C24.0575 16.9122 23.3633 16.8154 22.6713 16.8154C20.1084 16.8154 17.9508 17.7057 16.1783 19.4874C14.4058 21.2702 13.5202 23.4391 13.5202 26.0132C13.5202 27.0014 13.6165 27.8917 13.9244 28.7819C14.2121 29.6745 14.5973 30.4668 15.0989 31.0487ZM31.5314 22.6434V13.6594H33.689C35.1726 13.6594 36.3472 13.9498 37.0414 14.5497C37.8106 15.1294 38.3133 16.1187 38.5059 17.4142C38.217 17.3174 37.9281 17.2217 37.5239 17.1249C37.1377 17.1249 36.6372 17.009 36.1557 17.009V22.0637C35.7504 22.2573 35.2689 22.4498 34.6721 22.5466C34.0742 22.6434 33.4001 22.6434 32.6108 22.6434H31.5314ZM31.5314 32.9272V24.2326H32.5134C34.9599 24.2326 36.9439 23.7486 38.2159 22.6434C39.4879 21.5606 40.1809 19.9905 40.1809 17.9961C40.1809 17.4142 40.0847 16.8154 39.8921 16.3303C39.6805 15.7293 39.3916 15.1294 39.0064 14.5486C40.6826 15.8272 41.8571 17.1238 42.6465 18.2077C43.437 19.3895 43.8222 20.5701 43.8222 21.6551C43.8222 23.7464 43.1302 25.3142 41.8571 26.5151C40.4709 27.6958 38.8138 28.3948 36.5397 28.3948H36.1557V36.9735H33.8816L29.7589 32.925H31.5314V32.9272ZM50.0252 36.9757L46.1936 32.9272H48.3513C50.3152 32.9272 51.894 32.8304 53.167 32.638C54.4379 32.3476 55.5363 31.9402 56.5194 31.3583C57.8865 30.5636 59.0633 29.383 59.8504 27.8917C60.6409 26.4015 61.0451 24.7368 61.0451 22.954C61.0451 21.7542 60.8335 20.5713 60.4483 19.3917C60.043 18.3067 59.5627 17.2217 58.7722 16.3314C60.7372 17.8993 62.2197 19.5853 63.2039 21.2702C64.1858 23.0519 64.571 24.9293 64.571 27.0025C64.571 29.8681 63.5902 32.3476 61.5288 34.109C59.4653 35.9875 56.712 36.9757 53.4559 36.9757H50.0252ZM47.7534 31.4551V13.6594H50.9131C52.6856 13.6594 54.1501 14.0455 55.3247 14.8401C56.5194 15.6336 57.5976 17.0101 58.4844 18.7918C57.6939 18.5014 57.0008 18.2111 56.3077 18.1143C55.6326 17.9004 55.0347 17.8047 54.4368 17.8047H52.5691V31.1669C52.0865 31.2637 51.4909 31.3605 50.912 31.3605C50.2178 31.4573 49.5247 31.4573 48.8305 31.4573H47.7534V31.4551Z" fill="#1EA0FF"/>
<path fill-rule="evenodd" clip-rule="evenodd" d="M11.1959 46.1305L10.5565 47.6736C10.1568 47.8042 9.77949 47.9044 9.42679 47.9696C9.07521 48.0349 8.7393 48.0676 8.42019 48.0676C7.94545 48.0676 7.4819 48.0056 7.0329 47.883C6.58279 47.7603 6.15619 47.5757 5.75534 47.3326C5.11825 46.9499 4.61887 46.4254 4.26505 45.7591C3.90899 45.0939 3.73096 44.3578 3.73096 43.5565C3.73096 42.9554 3.85972 42.3702 4.11613 41.8018C4.37254 41.2356 4.74091 40.7291 5.21566 40.2924C5.64898 39.8929 6.14499 39.589 6.70036 39.3808C7.25796 39.1725 7.85139 39.0679 8.48065 39.0679C8.77961 39.0679 9.09424 39.096 9.42343 39.1512C9.75261 39.2063 10.1064 39.2941 10.4849 39.4078V40.7843C10.1008 40.5794 9.7347 40.4253 9.39096 40.3273C9.04721 40.2294 8.71131 40.1776 8.38436 40.1776C7.43151 40.1776 6.66677 40.4736 6.09125 41.0657C5.51797 41.6566 5.22909 42.4456 5.22909 43.4236C5.22909 44.4963 5.52693 45.3652 6.12148 46.0247C6.71715 46.6854 7.49981 47.0141 8.46946 47.0141C8.86583 47.0141 9.28907 46.9409 9.73694 46.7968C10.1837 46.6539 10.673 46.431 11.1959 46.1305ZM13.2102 47.8526C13.3893 47.6894 13.5181 47.5003 13.5942 47.2943C13.6726 47.0861 13.7118 46.7653 13.7118 46.3342V40.7865C13.7118 40.3543 13.6726 40.0336 13.5942 39.8299C13.5181 39.6228 13.3893 39.4382 13.2102 39.2772H17.8826V40.6245C17.6744 40.4613 17.4426 40.3397 17.194 40.2654C16.9432 40.1923 16.6532 40.154 16.3263 40.154C16.1583 40.154 15.9702 40.1686 15.7631 40.1956C15.5548 40.2215 15.3163 40.2643 15.0566 40.3172V42.7337H17.1436V43.9785C17.0462 43.866 16.9108 43.7827 16.7462 43.7377C16.5782 43.6893 16.2692 43.6656 15.8235 43.6656H15.0566V46.7394C15.379 46.789 15.6735 46.8261 15.9333 46.8497C16.1942 46.8745 16.4214 46.8869 16.614 46.8869C17.0474 46.8869 17.4594 46.8295 17.8423 46.7124C18.2264 46.5942 18.6071 46.4142 18.9799 46.1722L18.3854 47.8515H13.2102V47.8526ZM22.7006 46.3342C22.7006 46.7653 22.7387 47.0861 22.8126 47.2943C22.8876 47.5025 23.0197 47.6883 23.2034 47.8526H20.8655C21.0446 47.6894 21.1734 47.5025 21.2506 47.2943C21.3279 47.0861 21.3671 46.7653 21.3671 46.3342V40.7865C21.3671 40.3543 21.3279 40.0336 21.2506 39.8299C21.1734 39.6228 21.0446 39.4382 20.8655 39.2772H23.817C24.659 39.2772 25.3408 39.4809 25.8581 39.8828C26.3754 40.2857 26.6352 40.8124 26.6352 41.4574C26.6352 41.9244 26.4796 42.3409 26.1694 42.6988C25.8581 43.0556 25.3733 43.3696 24.7194 43.642L26.9342 46.6111C27.0652 46.7878 27.2242 46.9747 27.4078 47.1728C27.5914 47.3686 27.803 47.5768 28.0404 47.7918L27.3764 47.8515H27.2723C26.961 47.8515 26.6565 47.7693 26.3654 47.6061C26.0709 47.4429 25.819 47.2133 25.614 46.9251L23.0713 43.4011C23.8304 43.2346 24.3835 43.0027 24.734 42.7078C25.0844 42.4129 25.2602 42.0347 25.2602 41.5688C25.2602 41.1377 25.1091 40.7865 24.809 40.5142C24.5078 40.2429 24.1126 40.1056 23.6255 40.1056C23.5169 40.1056 23.3825 40.1157 23.228 40.1337C23.0713 40.1517 22.8943 40.1821 22.6995 40.217V46.3342H22.7006ZM32.6333 46.3342C32.6333 46.7653 32.6725 47.0861 32.7498 47.2943C32.827 47.5025 32.9581 47.6883 33.1361 47.8526H30.7982C30.9807 47.6894 31.1128 47.5025 31.1878 47.2943C31.2617 47.0861 31.302 46.7653 31.302 46.3342V40.2182H30.6134C30.1387 40.2182 29.7513 40.2564 29.459 40.3296C29.1646 40.4027 28.9283 40.5243 28.7536 40.6886L29.1758 39.2795H35.2736L34.8738 40.6627C34.7462 40.5119 34.5794 40.4005 34.3745 40.3273C34.1673 40.2553 33.9064 40.2193 33.5907 40.2193H32.6333V46.3342ZM39.0614 46.3342C39.0614 46.7653 39.0984 47.0861 39.1734 47.2943C39.2484 47.5025 39.3794 47.6883 39.5619 47.8526H37.2252C37.4066 47.6894 37.5398 47.5025 37.6137 47.2943C37.6887 47.0861 37.7279 46.7653 37.7279 46.3342V40.7854C37.7279 40.3532 37.6887 40.0336 37.6137 39.8299C37.5398 39.6228 37.4066 39.4382 37.2252 39.2772H39.5619C39.3794 39.437 39.2496 39.6228 39.1757 39.8276C39.1006 40.0336 39.0614 40.3532 39.0614 40.7854V46.3342ZM43.8571 46.3331C43.8571 46.7642 43.8974 47.0861 43.9713 47.2921C44.0463 47.5003 44.1784 47.6883 44.362 47.8526H42.023C42.2022 47.6894 42.3309 47.5003 42.4093 47.2943C42.4866 47.0861 42.5257 46.7653 42.5257 46.3342V40.7865C42.5257 40.3543 42.4866 40.0336 42.4093 39.8299C42.3309 39.6228 42.2022 39.4382 42.023 39.2772H46.6966V40.6245C46.4883 40.4613 46.2565 40.3397 46.008 40.2654C45.7572 40.1923 45.4672 40.154 45.1413 40.154C44.9745 40.154 44.7841 40.1686 44.577 40.1956C44.3699 40.2215 44.1314 40.2643 43.8716 40.3172V42.7337H45.9598V43.9785C45.8624 43.866 45.7258 43.7827 45.5612 43.7377C45.3944 43.6893 45.0842 43.6656 44.6375 43.6656H43.8593V46.3331H43.8571ZM50.8987 46.3342C50.8987 46.7653 50.9368 47.0861 51.0118 47.2943C51.0857 47.5025 51.219 47.6883 51.4026 47.8526H49.0636C49.2472 47.6894 49.3782 47.5025 49.4532 47.2943C49.5271 47.0861 49.5674 46.7653 49.5674 46.3342V40.7854C49.5674 40.3532 49.5271 40.0336 49.4532 39.8299C49.3782 39.6228 49.2472 39.4382 49.0636 39.2772H51.4026C51.219 39.437 51.088 39.6228 51.013 39.8276C50.9391 40.0336 50.8987 40.3532 50.8987 40.7854V46.3342ZM53.8625 47.8526C54.0417 47.6894 54.1705 47.5003 54.2477 47.2943C54.3261 47.0861 54.3653 46.7653 54.3653 46.3342V40.7865C54.3653 40.3543 54.3261 40.0336 54.2477 39.8299C54.1705 39.6228 54.0417 39.4382 53.8625 39.2772H58.535V40.6245C58.3267 40.4613 58.0949 40.3397 57.8464 40.2654C57.5956 40.1923 57.3067 40.154 56.9809 40.154C56.8129 40.154 56.6237 40.1686 56.4165 40.1956C56.2083 40.2215 55.9698 40.2643 55.71 40.3172V42.7337H57.7982V43.9785C57.7008 43.866 57.5653 43.7827 57.4007 43.7377C57.2328 43.6893 56.9238 43.6656 56.477 43.6656H55.7111V46.7394C56.0347 46.789 56.3281 46.8261 56.5879 46.8497C56.8499 46.8745 57.0772 46.8869 57.2697 46.8869C57.7019 46.8869 58.114 46.8295 58.4969 46.7124C58.8821 46.5942 59.2617 46.4142 59.6356 46.1722L59.04 47.8515H53.8625V47.8526ZM63.26 46.8148C63.5691 46.8644 63.8389 46.9015 64.064 46.9229C64.289 46.9465 64.4861 46.9578 64.6485 46.9578C65.5957 46.9578 66.3795 46.6359 66.9987 45.9932C67.6179 45.3483 67.9269 44.5312 67.9269 43.5452C67.9269 42.5345 67.6212 41.7196 67.0065 41.1051C66.3918 40.4905 65.5733 40.181 64.5555 40.181C64.3473 40.181 64.1334 40.1956 63.9173 40.2238C63.699 40.2542 63.4784 40.2992 63.2589 40.3622V46.8148H63.26ZM61.4249 47.8526C61.604 47.6928 61.7328 47.5104 61.8056 47.3101C61.8784 47.1097 61.9164 46.7822 61.9164 46.3354V40.7865C61.9164 40.3375 61.8784 40.0144 61.8056 39.8141C61.7328 39.6149 61.604 39.437 61.4249 39.2783H64.3965C65.1926 39.2783 65.8532 39.3571 66.3728 39.5136C66.8945 39.6689 67.376 39.9266 67.8172 40.2812C68.3109 40.6751 68.6838 41.14 68.9335 41.6678C69.1854 42.1991 69.3097 42.7911 69.3097 43.4405C69.3097 44.0281 69.2156 44.5751 69.0298 45.0759C68.845 45.5779 68.564 46.0349 68.1923 46.4389C67.7365 46.9364 67.1834 47.2988 66.5306 47.5183C65.8756 47.7412 65.0291 47.8526 63.9912 47.8526H61.4249Z" fill="#1EA0FF"/>
<path d="M65.7366 50.5337H7.30371V51.72H65.7366V50.5337Z" fill="#1EA0FF"/>
<path fill-rule="evenodd" clip-rule="evenodd" d="M36.5194 58.1513C36.0279 58.4146 35.5543 58.5531 35.1019 58.5655C34.785 58.5655 34.4962 58.5047 34.2398 58.3842C33.9834 58.2638 33.7684 58.1006 33.5915 57.8946C33.4157 57.6898 33.2813 57.4557 33.1884 57.1968C33.0966 56.938 33.0484 56.6701 33.0451 56.3955C33.0507 56.0612 33.1201 55.746 33.2544 55.4545C33.3877 55.163 33.587 54.9266 33.8535 54.7466C34.1188 54.5676 34.4402 54.4708 34.8153 54.4596C35.3404 54.4596 35.8376 54.6092 36.3056 54.9053V54.024C35.7928 53.8777 35.3259 53.8045 34.9093 53.8045C34.4917 53.8045 34.111 53.8732 33.7706 54.0093C33.4314 54.1467 33.1414 54.3402 32.9017 54.5867C32.6632 54.8344 32.4807 55.127 32.3553 55.4613C32.2288 55.7967 32.1683 56.1636 32.1683 56.5598L32.1728 56.6554L32.1762 56.7455L32.1751 56.7466C32.2098 57.297 32.3643 57.7562 32.6364 58.122C32.9085 58.4889 33.2567 58.7613 33.6766 58.9346C34.0976 59.1091 34.5443 59.2003 35.0179 59.2059C35.4681 59.2059 35.8969 59.1282 36.3067 58.9718L36.5194 58.49V58.1513ZM36.5194 62.0343L36.3302 61.5368C36.2619 61.583 36.1578 61.6168 36.0201 61.6381C35.8835 61.6595 35.7065 61.6708 35.4927 61.6708H35.3818C35.4972 61.7653 35.5968 61.8711 35.6786 61.9859C35.7581 62.1007 35.8443 62.2662 35.9327 62.4789L36.5183 63.9229V62.0343H36.5194ZM24.8187 65.2803L24.5735 64.3146C24.8714 64.5217 25.1625 64.6759 25.4435 64.7761C25.7246 64.8774 26.0056 64.928 26.2811 64.928C26.636 64.928 26.9204 64.8493 27.1343 64.6928C27.3492 64.5364 27.4567 64.3315 27.4567 64.0805L27.4231 63.8667L27.3257 63.6629C27.2328 63.5178 26.9182 63.3084 26.3818 63.0383C26.2463 62.973 26.1411 62.919 26.0661 62.8818C25.5656 62.6218 25.2196 62.381 25.0348 62.1626C24.8479 61.942 24.7549 61.6809 24.7549 61.3793C24.7549 60.9482 24.9251 60.6049 25.2655 60.3505C25.607 60.095 26.0739 59.969 26.6673 59.969C26.8375 59.969 27.0256 59.9814 27.2283 60.0027C27.4332 60.0264 27.6571 60.0624 27.8956 60.1108V61.0033C27.684 60.839 27.469 60.713 27.2541 60.6319C27.0402 60.5509 26.8163 60.5092 26.5845 60.5092C26.2911 60.5092 26.0538 60.5734 25.8757 60.704C25.6977 60.8345 25.607 61.0056 25.607 61.2149C25.607 61.4018 25.6775 61.5684 25.8186 61.7102C25.9586 61.852 26.2755 62.0456 26.767 62.2842L26.8935 62.3461C27.3067 62.5408 27.618 62.722 27.8229 62.8886C27.9763 63.0113 28.0961 63.161 28.18 63.3377C28.2651 63.5144 28.3088 63.7023 28.3088 63.9027C28.3088 64.3608 28.105 64.7491 27.7008 65.0654C27.2955 65.3828 26.7894 65.5414 26.1814 65.5414C25.9866 65.5414 25.7761 65.5201 25.551 65.4773C25.3271 65.4334 25.0808 65.3681 24.8187 65.2803ZM29.6759 62.9201H31.6018C31.5872 62.6579 31.4932 62.4418 31.3207 62.2752C31.1483 62.1075 30.9322 62.0231 30.6747 62.0231C30.3992 62.0231 30.1708 62.103 29.9928 62.2628C29.8148 62.4226 29.7084 62.641 29.6759 62.9201ZM29.6233 63.4446C29.6401 63.9094 29.7823 64.2797 30.0499 64.5544C30.3175 64.8279 30.6691 64.9663 31.1013 64.9663C31.2939 64.9663 31.4977 64.9337 31.7115 64.8695C31.9243 64.8042 32.1583 64.7041 32.4057 64.569L32.006 65.2882C31.7921 65.3692 31.5906 65.4323 31.4058 65.4728C31.2211 65.5133 31.0453 65.5324 30.8818 65.5324C30.2817 65.5324 29.7868 65.3445 29.4016 64.9708C29.0142 64.5949 28.8205 64.1165 28.8205 63.5403C28.8205 62.9471 28.9985 62.4609 29.3557 62.0827C29.7129 61.7023 30.1675 61.5121 30.724 61.5121C31.2357 61.5121 31.6432 61.6865 31.9433 62.0321C32.2445 62.3776 32.4012 62.8481 32.4068 63.4435H29.6233V63.4446ZM35.0986 62.3675L34.925 62.2752L34.7291 62.2459C34.4682 62.2459 34.2678 62.336 34.13 62.5183C33.9934 62.7006 33.9251 62.9651 33.9251 63.3095V64.7007C33.9251 64.8639 33.9464 65.0012 33.9856 65.1115C34.0259 65.2195 34.092 65.3163 34.1804 65.3974H32.9689C33.0585 65.3163 33.1246 65.2207 33.1637 65.1115C33.2041 65.0023 33.2242 64.8639 33.2242 64.7007V62.3787C33.2242 62.2133 33.2029 62.0726 33.1626 61.9612C33.1212 61.8486 33.0574 61.7507 32.9689 61.6696H33.0495C33.1705 61.6696 33.2992 61.6629 33.4325 61.6494C33.5668 61.6348 33.7146 61.6134 33.8759 61.5852L33.9307 62.1795C34.0393 61.9803 34.1647 61.8317 34.3047 61.7361C34.4458 61.6404 34.6059 61.5909 34.7873 61.5909L34.9239 61.5999L35.0974 61.6303V62.3675H35.0986ZM3.24692 58.3156V54.5068H2.59303C2.15859 54.5068 1.83948 54.6081 1.63794 54.8085H1.60547L1.87755 53.8822H1.9089C1.97608 53.9238 2.09365 53.9441 2.25936 53.9441H5.23324C5.43479 53.9441 5.57139 53.9227 5.63745 53.8822H5.66992L5.42807 54.8085H5.39672C5.35529 54.6903 5.27915 54.6115 5.17054 54.571C5.06081 54.5271 4.91749 54.5068 4.74394 54.5068H4.0307V58.283C4.0307 58.4439 4.05646 58.5891 4.10572 58.7129C4.15723 58.8367 4.26808 58.9504 4.44163 59.0494V59.0809H2.89646V59.0494C3.12936 58.9718 3.24692 58.7287 3.24692 58.3156ZM5.98791 58.3944V54.571C5.98791 54.4168 5.96887 54.293 5.93193 54.1996C5.89274 54.1061 5.811 54.0262 5.68672 53.9598V53.9452H6.28239C6.47049 53.9452 6.59926 53.8968 6.6698 53.8022H6.68547V55.88C6.80528 55.7168 6.97211 55.593 7.18709 55.5119C7.40095 55.4298 7.62041 55.3881 7.84323 55.3881C8.7233 55.3881 9.16445 55.8507 9.16445 56.777V58.3617C9.16445 58.5733 9.18237 58.723 9.2182 58.8108C9.25403 58.8986 9.33688 58.9774 9.46453 59.0494V59.0809H8.17801V59.0494C8.2911 58.9887 8.36836 58.9099 8.40643 58.8187C8.44673 58.7275 8.46577 58.6049 8.46577 58.4563V57.0516C8.46577 56.2908 8.17017 55.9115 7.5801 55.9115H7.57226C7.26099 55.9115 7.03593 55.988 6.89709 56.1422C6.75713 56.2964 6.68659 56.5564 6.68659 56.9188V58.3775C6.68659 58.5666 6.70675 58.7118 6.74258 58.8086C6.77841 58.9076 6.86238 58.9887 6.99003 59.0506V59.0821H5.68672V59.0506C5.88714 58.9616 5.98791 58.7737 5.98791 58.4889V58.3944ZM9.85754 57.2531C9.85754 56.9402 9.9292 56.6386 10.0748 56.3527C10.2203 56.0668 10.4409 55.8316 10.7365 55.6515C11.031 55.4703 11.3926 55.3769 11.8147 55.3712C12.1283 55.3712 12.4183 55.4444 12.6825 55.5907C12.9456 55.737 13.1572 55.9475 13.3118 56.2187C13.4663 56.49 13.5447 56.8051 13.5447 57.1631H10.6939C10.6939 57.3848 10.741 57.6065 10.8317 57.8226C10.9224 58.0398 11.0724 58.2267 11.2762 58.3809C11.4811 58.5339 11.742 58.6274 12.0611 58.6521L12.2537 58.6679C12.4698 58.66 12.6937 58.6217 12.921 58.5587C13.1483 58.4957 13.3521 58.3966 13.5279 58.2627H13.5435L13.1628 58.9887C12.8012 59.1237 12.4429 59.1901 12.0924 59.1901C11.7084 59.1901 11.3445 59.117 11.0052 58.9695C10.6648 58.821 10.3894 58.6003 10.18 58.3066C9.9695 58.0106 9.86201 57.6594 9.85754 57.2531ZM10.7253 56.6993H12.7362C12.7105 56.4416 12.603 56.2413 12.416 56.1028C12.2279 55.9621 12.0084 55.8923 11.7565 55.8923C11.5975 55.8923 11.4408 55.925 11.2907 55.9891C11.1396 56.0533 11.0119 56.1467 10.91 56.2694C10.8081 56.3909 10.7466 56.535 10.7253 56.6993ZM16.0304 56.7455L16.027 56.6554L16.0225 56.5598C16.0225 56.1636 16.0852 55.7955 16.2095 55.4613C16.336 55.1259 16.5174 54.8332 16.7581 54.5867C16.9955 54.3391 17.2866 54.1455 17.6248 54.0093C17.9652 53.8732 18.3459 53.8045 18.7635 53.8045C19.1811 53.8045 19.6469 53.8777 20.1597 54.024V54.9053C19.6917 54.6092 19.1946 54.4596 18.6706 54.4596C18.2955 54.4708 17.9741 54.5676 17.7076 54.7466C17.4412 54.9266 17.2418 55.163 17.1075 55.4545C16.9742 55.746 16.9048 56.0612 16.8992 56.3955C16.9026 56.6701 16.9507 56.938 17.0425 57.1968C17.1355 57.4557 17.2698 57.6898 17.4456 57.8946C17.6203 58.1006 17.8375 58.2638 18.0939 58.3842C18.3503 58.5047 18.6392 58.5655 18.9572 58.5655C19.4611 58.552 19.9896 58.382 20.5427 58.0567H20.5651L20.1609 58.9718C19.7511 59.1271 19.3222 59.2059 18.8732 59.2059C18.3985 59.2003 17.9517 59.1091 17.5307 58.9346C17.1108 58.7613 16.7649 58.4889 16.4917 58.122C16.2185 57.7562 16.0639 57.297 16.0304 56.7455ZM21.2268 58.2987V54.7781C21.2268 54.3301 21.1092 54.0566 20.8752 53.9587V53.9441H22.7552C22.9948 53.9441 23.2198 53.9711 23.4303 54.0217C23.6397 54.0746 23.8289 54.1545 23.9924 54.2603C24.1559 54.3673 24.2891 54.5079 24.3888 54.679C24.4884 54.8501 24.5433 55.0538 24.55 55.2857C24.55 55.5862 24.4705 55.8462 24.3115 56.0589C24.1537 56.2739 23.9622 56.4393 23.7416 56.553C23.5188 56.6667 23.3105 56.7365 23.1191 56.7601C23.0485 56.7601 22.9478 56.7725 22.8168 56.7928C22.5962 56.7815 22.4092 56.7331 22.2569 56.6509C22.4775 56.6509 22.6958 56.6014 22.9108 56.5058C23.1269 56.4078 23.3049 56.2683 23.4427 56.0848C23.5804 55.9025 23.6498 55.6898 23.6498 55.4478C23.6498 55.1169 23.5479 54.8771 23.3452 54.7274C23.1437 54.5789 22.8772 54.5046 22.5458 54.5046C22.3588 54.5046 22.1797 54.5215 22.0095 54.5518V58.2672C22.0095 58.4642 22.0397 58.6229 22.099 58.741C22.1584 58.8615 22.2614 58.965 22.4047 59.0472L22.4204 59.0787H20.8752V59.0472C21.1092 58.9515 21.2268 58.7005 21.2268 58.2987ZM25.186 58.283V54.6858C25.186 54.2862 25.0684 54.0431 24.8344 53.9587V53.9441H26.7614C27.3772 53.9441 27.9024 54.0566 28.3346 54.2817C28.7668 54.5046 29.0915 54.8152 29.3053 55.2103C29.5214 55.6065 29.6289 56.0589 29.6289 56.5665C29.6121 56.9965 29.4957 57.4028 29.2796 57.7855C29.0635 58.1681 28.7332 58.481 28.292 58.7208C27.8508 58.9605 27.3067 59.0798 26.6606 59.0798H24.8344V59.0483C25.0696 58.911 25.186 58.6544 25.186 58.283ZM25.9787 58.472C26.0896 58.4923 26.271 58.5126 26.5229 58.5317C26.8823 58.5261 27.2272 58.463 27.5541 58.3415C27.8833 58.2188 28.1565 58.023 28.376 57.7562C28.5966 57.4883 28.7175 57.1462 28.7376 56.7309L28.7399 56.6296L28.7444 56.5361C28.7444 56.0139 28.6413 55.6031 28.4376 55.3014C28.2327 55.0009 27.9763 54.7916 27.6683 54.6779C27.3615 54.5642 27.0335 54.5068 26.6853 54.5068C26.4748 54.5068 26.2385 54.5338 25.9787 54.5856V58.472Z" fill="#1EA0FF"/>
<path fill-rule="evenodd" clip-rule="evenodd" d="M36.5195 58.151L36.6897 58.0576H36.7099L36.5195 58.4898V58.151ZM36.5195 62.034L37.4612 64.5068L38.3379 62.4797L38.4286 62.2445L38.4543 62.0813L38.4028 61.8933L38.2226 61.6705H39.2975L37.637 65.5254C37.4466 65.4658 37.2876 65.3645 37.1611 65.2249C37.0346 65.0831 36.898 64.8411 36.7547 64.4956L36.5207 63.9215V62.034H36.5195ZM39.4789 60.6733C39.4789 60.545 39.5248 60.4324 39.6121 60.3413C39.7006 60.2501 39.8103 60.2028 39.9357 60.2028C40.0589 60.2028 40.1652 60.2501 40.2492 60.3413C40.3365 60.4324 40.3802 60.545 40.3802 60.6733C40.3802 60.8072 40.3377 60.9198 40.2526 61.0098C40.1686 61.0999 40.0611 61.1471 39.9357 61.1471C39.8069 61.1471 39.6972 61.0999 39.611 61.0098C39.5236 60.9164 39.4789 60.8027 39.4789 60.6733ZM40.3119 64.7015C40.3119 64.8647 40.3343 65.002 40.3735 65.1112C40.4138 65.2215 40.4799 65.3183 40.5705 65.3982H39.3624C39.4531 65.3183 39.5192 65.2226 39.5606 65.1123C39.602 65.002 39.6233 64.8647 39.6233 64.7038V62.3796C39.6233 62.2152 39.5998 62.0734 39.5606 61.962C39.5169 61.8495 39.4509 61.7515 39.3624 61.6705C39.5751 61.6671 39.7577 61.6559 39.9111 61.6412C40.0656 61.6266 40.1977 61.6086 40.3119 61.5861V64.7015ZM44.0584 62.4561C43.877 62.3391 43.7012 62.2501 43.5422 62.1927C43.381 62.1353 43.2276 62.1049 43.0842 62.1049C42.7237 62.1049 42.4315 62.2265 42.2142 62.4662C41.9959 62.7071 41.8862 63.0267 41.8862 63.4229C41.8862 63.8529 42.0239 64.2085 42.3005 64.4911C42.5737 64.7736 42.9208 64.9142 43.3362 64.9142C43.5086 64.9142 43.6922 64.8839 43.8826 64.8298C44.0729 64.7758 44.289 64.6846 44.5298 64.5631L44.1323 65.2665C43.9912 65.3566 43.8456 65.4264 43.6934 65.4703C43.5422 65.513 43.3798 65.5333 43.2063 65.5333C42.5815 65.5333 42.0653 65.3498 41.6611 64.9795C41.2569 64.6126 41.0531 64.1455 41.0531 63.5805C41.0531 63.0065 41.2524 62.5191 41.6488 62.1286C42.0474 61.7347 42.5401 61.5377 43.1257 61.5377C43.2164 61.5377 43.3395 61.5467 43.4952 61.5636C43.6497 61.5793 43.8389 61.6041 44.0595 61.6334V62.4561H44.0584ZM45.7334 62.9187H47.6593C47.6447 62.6576 47.5507 62.4415 47.3782 62.2749C47.2069 62.1083 46.9908 62.0228 46.7333 62.0228C46.4567 62.0228 46.2283 62.1038 46.0503 62.2636C45.8756 62.4223 45.767 62.6407 45.7334 62.9187ZM45.6819 63.4443C45.6998 63.9103 45.842 64.2795 46.1085 64.5541C46.3761 64.8287 46.7288 64.966 47.1599 64.966C47.3525 64.966 47.5563 64.9323 47.7701 64.8692C47.984 64.8039 48.2169 64.7049 48.4654 64.5687L48.0646 65.289C47.8507 65.3701 47.6492 65.432 47.4644 65.4725C47.2808 65.513 47.105 65.5322 46.9404 65.5322C46.3425 65.5322 45.8476 65.3442 45.4602 64.9694C45.0739 64.5957 44.878 64.1174 44.878 63.5411C44.878 62.9468 45.056 62.4606 45.4143 62.0813C45.7704 61.7031 46.2261 61.5129 46.7814 61.5129C47.2943 61.5129 47.7007 61.6863 48.0008 62.0318C48.302 62.3785 48.4598 62.8489 48.4654 63.4432H45.6819V63.4443ZM36.8689 57.2528C36.8689 56.9399 36.9428 56.6394 37.0861 56.3524C37.2317 56.0677 37.4511 55.8324 37.7478 55.6512C38.0412 55.4711 38.4017 55.3766 38.825 55.3721C39.1385 55.3721 39.4285 55.4441 39.6927 55.5904C39.957 55.7379 40.1675 55.9484 40.322 56.2196C40.4765 56.4897 40.5549 56.8049 40.5549 57.1617H37.7053C37.7053 57.3845 37.7534 57.6051 37.843 57.8235C37.9348 58.0407 38.0837 58.2264 38.2864 58.3817C38.4913 58.5359 38.7533 58.6271 39.0735 58.6518L39.2661 58.6687C39.4811 58.6597 39.705 58.6226 39.9323 58.5596C40.1596 58.4954 40.3634 58.3964 40.5403 58.2613H40.5549L40.1742 58.9884C39.8125 59.1223 39.4565 59.191 39.1026 59.191C38.7175 59.191 38.3536 59.1167 38.0154 58.9681C37.675 58.8196 37.3996 58.6012 37.1902 58.3063C36.9808 58.0103 36.8722 57.6591 36.8689 57.2528ZM37.7366 56.6991H39.7487C39.7229 56.4425 39.6155 56.241 39.4285 56.1025C39.2415 55.9641 39.022 55.8932 38.7701 55.8932C38.6089 55.8932 38.4532 55.9258 38.3032 55.99C38.1509 56.053 38.0255 56.1476 37.9225 56.268C37.8206 56.3896 37.7568 56.5347 37.7366 56.6991ZM41.286 58.4403V56.2005C41.286 55.9979 41.2681 55.8471 41.2345 55.7548C41.1998 55.6636 41.1214 55.5814 41.0005 55.5105V55.4813H41.2009C41.2793 55.4756 41.389 55.4723 41.5212 55.4711C41.6544 55.4666 41.7552 55.4599 41.819 55.4475L41.9702 55.3856H42.0026V55.9709C42.1202 55.739 42.2758 55.5882 42.4684 55.5128C42.6644 55.4374 42.9096 55.4013 43.1984 55.4013V56.1363C43.129 56.0429 42.9969 55.9934 42.8099 55.9934C42.7282 55.9934 42.6218 56.0114 42.4908 56.0429C42.165 56.1476 42.0026 56.4807 42.0026 57.0334V58.4211C42.0026 58.5832 42.0217 58.7115 42.0586 58.8038C42.0967 58.8961 42.1784 58.9771 42.3049 59.0469V59.0773H41.0016V59.0469C41.1282 58.9839 41.2065 58.9017 41.2401 58.8038C41.2704 58.7104 41.286 58.5866 41.286 58.4403ZM43.8658 57.9259V55.9967H43.3384V55.7097C43.9531 55.6253 44.261 55.1639 44.261 54.3276H44.5645V55.4824H45.14C45.3852 55.4824 45.5375 55.4655 45.5991 55.434H45.6136V56.1543H45.5991C45.5106 56.0485 45.3606 55.9967 45.1545 55.9967H44.5645V57.604C44.5645 57.81 44.5846 57.9979 44.6205 58.1668C44.6585 58.3378 44.7459 58.4718 44.8825 58.5663C44.9687 58.6181 45.0963 58.653 45.2631 58.6687C45.4266 58.6451 45.5431 58.6203 45.6125 58.5899L45.2004 59.1448C45.1288 59.1538 45.0224 59.1595 44.8836 59.1595C44.5354 59.1595 44.2778 59.0435 44.1132 58.8083C43.9486 58.5742 43.8658 58.2793 43.8658 57.9259ZM46.5463 54.0383C46.6762 54.0383 46.7915 54.0867 46.8878 54.1847C46.9852 54.2803 47.0356 54.394 47.0356 54.5234C47.0356 54.6563 46.9863 54.7733 46.8889 54.869C46.7926 54.9646 46.6773 55.0142 46.5463 55.0142C46.4131 55.0142 46.2977 54.9646 46.2037 54.869C46.113 54.7756 46.0637 54.6574 46.0637 54.5234L46.1264 54.2826L46.3 54.1036L46.5463 54.0383ZM46.2283 58.4403V56.1374C46.2283 55.9832 46.2115 55.8561 46.179 55.7593C46.1455 55.6613 46.066 55.5781 45.9383 55.5105V55.4813C46.1298 55.4813 46.2686 55.4858 46.3492 55.4959C46.5194 55.4869 46.6437 55.4745 46.7232 55.4565L46.908 55.3552H46.9404V58.2816C46.9404 58.501 46.9572 58.6654 46.9897 58.779C47.0222 58.8905 47.1073 58.9805 47.2439 59.0469L47.2271 59.0773H45.9394V59.0469C46.0615 58.9805 46.1399 58.8961 46.1768 58.8004C46.2104 58.7081 46.2283 58.5866 46.2283 58.4403ZM48.0467 58.3457V55.9956H47.6727L48.0467 55.4813V54.9635C48.0467 54.7058 48.1273 54.4886 48.2897 54.3107C48.4531 54.1351 48.6569 54.0012 48.9032 53.9168C49.1507 53.8312 49.3981 53.7874 49.6445 53.7874C49.7598 53.7874 49.9613 53.7975 50.2491 53.8189L49.7139 54.4131C49.5739 54.3344 49.4239 54.2938 49.2627 54.2938C49.0869 54.2938 48.957 54.3456 48.8775 54.448C48.7991 54.5516 48.7588 54.708 48.7588 54.9185V55.4813H49.6501L49.7912 55.4329H49.8225V56.1228H49.7912C49.7441 56.0384 49.6266 55.9945 49.4407 55.9945H48.7588V58.0722C48.7588 58.2635 48.7666 58.4177 48.7812 58.5382C48.7958 58.6575 48.8271 58.7621 48.8741 58.8477L49.0925 59.0638V59.0784H47.7578V59.048C47.8765 58.9906 47.9526 58.9141 47.9896 58.8241C48.0265 58.7329 48.0467 58.6226 48.0467 58.501V58.3457ZM50.4283 54.0383C50.557 54.0383 50.6735 54.0867 50.7709 54.1847C50.8683 54.2803 50.9187 54.394 50.9187 54.5234C50.9187 54.6563 50.8694 54.7733 50.772 54.869C50.6757 54.9646 50.5604 55.0142 50.4283 55.0142C50.295 55.0142 50.1797 54.9646 50.0867 54.869C49.9938 54.7756 49.9457 54.6574 49.9457 54.5234L50.0084 54.2826L50.183 54.1036L50.4283 54.0383ZM50.1103 58.4403V56.1374C50.1103 55.9832 50.0935 55.8561 50.0632 55.7593C50.0285 55.6613 49.9479 55.5781 49.8214 55.5105V55.4813C50.0117 55.4813 50.1506 55.4858 50.2323 55.4959C50.4025 55.4869 50.5268 55.4745 50.6052 55.4565L50.791 55.3552H50.8235V58.2816C50.8235 58.501 50.8414 58.6654 50.8728 58.779C50.9052 58.8905 50.9903 58.9805 51.1247 59.0469L51.1101 59.0773H49.8225V59.0469C49.9434 58.9805 50.024 58.8961 50.0576 58.8004C50.0935 58.7081 50.1103 58.5866 50.1103 58.4403ZM51.5927 57.3688C51.5927 57.0412 51.6521 56.752 51.7708 56.4999C51.8917 56.2477 52.054 56.0384 52.2612 55.8763C52.4683 55.712 52.7079 55.5893 52.9755 55.5105C53.2431 55.4295 53.5298 55.3867 53.8287 55.3867C54.1131 55.3867 54.3908 55.4194 54.6595 55.4813V56.2781H54.6304C54.4087 56.0328 54.0963 55.909 53.6888 55.909C53.4604 55.909 53.2465 55.9607 53.0472 56.0632C52.8468 56.1667 52.6867 56.3186 52.5657 56.519C52.4448 56.7216 52.3843 56.9613 52.3843 57.2393C52.3888 57.4948 52.465 57.7323 52.6083 57.9495C52.7527 58.1668 52.9453 58.3401 53.1872 58.4684C53.4301 58.5967 53.6933 58.6631 53.9732 58.6676C54.4043 58.6496 54.7905 58.5202 55.1332 58.2849H55.1556L54.7525 59.0345C54.4378 59.1268 54.1131 59.1741 53.7817 59.1741C53.3764 59.1741 53.0046 59.0987 52.671 58.9467C52.3373 58.7937 52.0731 58.5798 51.8827 58.3063C51.689 58.0317 51.5927 57.7188 51.5927 57.3721V57.3688ZM55.1332 58.1026C55.1332 57.8674 55.1947 57.676 55.3146 57.5308C55.4377 57.3834 55.6057 57.2596 55.824 57.1583C55.9304 57.1133 56.1263 57.057 56.4107 56.9917C56.6962 56.9253 56.8933 56.8758 56.9997 56.8465C57.1072 56.8161 57.2068 56.7677 57.2986 56.7002L57.3905 56.5786L57.4375 56.3794C57.4375 56.223 57.358 56.1037 57.1979 56.0271C57.0378 55.9495 56.8687 55.909 56.6929 55.909C56.3827 55.909 56.0334 56.0136 55.6471 56.2162L56.1577 55.434C56.1957 55.434 56.2764 55.4272 56.4007 55.4104C56.5261 55.3957 56.619 55.3867 56.6761 55.3867C56.9459 55.3867 57.1945 55.4295 57.4184 55.5105C57.6435 55.5916 57.8238 55.7232 57.9581 55.9C58.0936 56.0789 58.1619 56.3085 58.1619 56.5809V57.9394C58.1619 58.1859 58.2067 58.3626 58.2974 58.4673C58.3881 58.5719 58.5605 58.635 58.8136 58.6496L58.4642 59.1899C58.1127 59.1572 57.8562 59.0762 57.6928 58.9456C57.5293 58.815 57.4464 58.6147 57.4464 58.3457V57.129C57.293 57.2123 57.0646 57.2933 56.759 57.3631C56.4555 57.4352 56.2361 57.5106 56.1017 57.5882C55.9685 57.6648 55.9024 57.8133 55.9024 58.0249C55.9024 58.2253 55.9774 58.3806 56.1297 58.4898C56.2831 58.5989 56.479 58.6586 56.7231 58.6665C56.9213 58.6519 57.1184 58.617 57.3143 58.5652L56.8552 59.1426C56.6996 59.1628 56.5686 59.1718 56.4678 59.1718C56.2013 59.1718 55.9651 59.1246 55.7636 59.03C55.562 58.9344 55.4064 58.8027 55.2989 58.6383C55.1903 58.4751 55.1332 58.2962 55.1332 58.1026ZM59.4025 57.9259V55.9967H58.8774V55.7097C59.491 55.6253 59.7989 55.1639 59.7989 54.3276H60.1023V55.4824H60.6756C60.9208 55.4824 61.0742 55.4655 61.1347 55.434H61.1504V56.1543H61.1347C61.0451 56.0485 60.8973 55.9967 60.6902 55.9967H60.1012V57.604C60.1012 57.81 60.1214 57.9979 60.1561 58.1668C60.193 58.3378 60.2815 58.4718 60.4181 58.5663C60.5032 58.6181 60.6319 58.653 60.7999 58.6687C60.9622 58.6451 61.0798 58.6203 61.1492 58.5899L60.7372 59.1448C60.6655 59.1538 60.558 59.1595 60.4192 59.1595C60.0732 59.1595 59.8146 59.0435 59.65 58.8083C59.4865 58.5742 59.4025 58.2793 59.4025 57.9259ZM62.0853 54.0383C62.2129 54.0383 62.3283 54.0867 62.4257 54.1847C62.5242 54.2803 62.5746 54.394 62.5746 54.5234C62.5746 54.6563 62.5242 54.7733 62.429 54.869C62.3305 54.9646 62.2152 55.0142 62.0853 55.0142C61.9498 55.0142 61.8345 54.9646 61.7415 54.869C61.6497 54.7756 61.6016 54.6574 61.6016 54.5234L61.6654 54.2826L61.839 54.1036L62.0853 54.0383ZM61.7662 58.4403V56.1374C61.7662 55.9832 61.7505 55.8561 61.7169 55.7593C61.6844 55.6613 61.6038 55.5781 61.4773 55.5105V55.4813C61.6688 55.4813 61.8054 55.4858 61.8882 55.4959C62.0584 55.4869 62.1827 55.4745 62.2611 55.4565L62.4458 55.3552H62.4794V58.2816C62.4794 58.501 62.4951 58.6654 62.5287 58.779C62.5612 58.8905 62.6451 58.9805 62.7817 59.0469L62.7661 59.0773H61.4784V59.0469C61.5993 58.9805 61.6788 58.8961 61.7136 58.8004C61.7471 58.7081 61.7662 58.5866 61.7662 58.4403ZM63.2643 57.2911C63.2699 56.9703 63.3494 56.6653 63.495 56.3817C63.645 56.0969 63.8723 55.8617 64.1802 55.6794C64.4848 55.4948 64.8632 55.3991 65.3156 55.3878C65.6459 55.3878 65.9616 55.4633 66.2617 55.6174C66.5595 55.7705 66.8014 55.9877 66.9828 56.2725C67.1642 56.5561 67.256 56.8848 67.256 57.254C67.256 57.5207 67.2022 57.7706 67.0948 58.0058C66.9884 58.2399 66.8395 58.4459 66.6491 58.6215C66.461 58.797 66.2416 58.9332 65.9986 59.0289C65.7545 59.1246 65.5003 59.1741 65.235 59.1741C64.9315 59.1741 64.6527 59.1234 64.403 59.0199C64.1511 58.9152 63.9429 58.7734 63.7749 58.599C63.6081 58.4222 63.4793 58.2197 63.3942 57.9934C63.3069 57.7649 63.2632 57.532 63.2632 57.2945V57.2911H63.2643ZM64.0559 57.1921C64.0559 57.5927 64.1701 57.9428 64.3986 58.2332C64.6236 58.5235 64.9035 58.6744 65.2361 58.6834L65.2977 58.6676C65.5518 58.6586 65.7657 58.5922 65.9426 58.4684C66.1173 58.3468 66.2483 58.1881 66.33 57.9957C66.414 57.8021 66.4577 57.5939 66.4577 57.3721C66.4577 57.1842 66.4286 57.0041 66.3726 56.8263C66.3166 56.6496 66.2337 56.4897 66.1262 56.3513C66.0199 56.2106 65.8889 56.1003 65.7332 56.0193C65.5787 55.9382 65.4074 55.8955 65.2204 55.8955C65.0536 55.9045 64.8789 55.9472 64.7076 56.0226C64.534 56.1003 64.384 56.2354 64.2552 56.4278C64.1276 56.618 64.0604 56.8735 64.0559 57.1921ZM67.9558 58.3772V56.1386C67.9558 55.9956 67.9334 55.8718 67.8965 55.7671C67.8561 55.6602 67.7755 55.5758 67.6535 55.5116V55.4813C67.8853 55.4813 68.042 55.4869 68.126 55.4959C68.3578 55.4824 68.5291 55.4441 68.6366 55.3867H68.6534V55.9956C68.7373 55.8504 68.8762 55.7142 69.0632 55.5837C69.2535 55.4531 69.4808 55.3867 69.7484 55.3867C70.6699 55.398 71.1301 55.8471 71.1301 56.7295V58.259L71.1133 58.3941C71.1267 58.5629 71.1514 58.7014 71.1894 58.8038C71.2286 58.9073 71.3092 58.9918 71.4324 59.0503V59.0807H70.1437V59.0503L70.343 58.8657L70.4169 58.6586C70.4258 58.5843 70.4314 58.4763 70.4314 58.3322V57.1301C70.4314 56.3085 70.1168 55.8955 69.4886 55.8955C69.1673 55.8955 68.9467 55.9821 68.828 56.1509C68.7127 56.3209 68.6522 56.5674 68.6522 56.8893V58.411C68.6522 58.5911 68.6702 58.7261 68.6993 58.8106C68.7317 58.895 68.818 58.976 68.9557 59.0514V59.0818H67.6669V59.0514C67.7946 58.9647 67.8752 58.8713 67.9065 58.7734C67.9379 58.6732 67.9558 58.5404 67.9558 58.3772Z" fill="#1EA0FF"/>
</svg>
