<svg width="811" height="187" viewBox="0 0 811 187" fill="none" xmlns="http://www.w3.org/2000/svg">
<g filter="url(#filter0_f)">
<ellipse cx="405.5" cy="147.5" rx="373.5" ry="7.5" fill="#C4C4C4" fill-opacity="0.8"/>
</g>
<path d="M282.629 140.658C272.854 140.658 264.24 138.881 256.789 135.326C249.406 131.703 243.596 125.995 239.357 118.202C235.119 110.409 233 100.463 233 88.3633V44.374C233 37.5783 238.509 32.0693 245.305 32.0693C252.1 32.0693 257.609 37.5783 257.609 44.374V87.6455C257.609 97.4209 259.694 104.872 263.864 109.999C268.103 115.058 274.323 117.587 282.526 117.587C290.729 117.587 296.916 115.023 301.086 109.896C305.256 104.77 307.341 97.3525 307.341 87.6455V44.4253C307.341 37.6013 312.873 32.0693 319.697 32.0693C326.521 32.0693 332.053 37.6013 332.053 44.4253V88.3633C332.053 100.463 329.934 110.409 325.695 118.202C321.457 125.927 315.646 131.601 308.264 135.224C300.881 138.847 292.336 140.658 282.629 140.658Z" fill="black"/>
<path d="M348.918 12.4092C348.918 5.55686 354.473 0.00195312 361.325 0.00195312C368.178 0.00195312 373.732 5.55686 373.732 12.4092V125.072C373.732 131.925 368.178 137.479 361.325 137.479C354.473 137.479 348.918 131.925 348.918 125.072V12.4092Z" fill="black"/>
<path d="M426.228 137.479C416.179 137.479 407.839 134.711 401.208 129.174C394.577 123.568 391.262 112.973 391.262 97.3867V53.3975V32.0693V12.5102C391.262 5.69788 396.754 0.159685 403.566 0.103386C410.459 0.0464264 416.076 5.61779 416.076 12.5102V32.0693H436.994C442.884 32.0693 447.658 36.8438 447.658 42.7334C447.658 48.623 442.884 53.3975 436.994 53.3975H416.076V98.5146C416.076 110.751 421.169 116.869 431.354 116.869H437.353C443.044 116.869 447.658 121.483 447.658 127.174C447.658 132.866 443.044 137.479 437.353 137.479H426.228Z" fill="black"/>
<path d="M474.958 28.6631C470.31 28.6631 467.584 27.3301 464.781 24.6641C462.047 21.9297 460.68 18.5117 460.68 14.4102C460.68 10.377 462.047 7.02734 464.781 4.36133C467.584 1.62695 470.344 0.259766 475.061 0.259766C479.846 0.259766 482.64 1.62695 485.442 4.36133C488.245 7.02734 489.646 10.377 489.646 14.4102C489.646 18.5801 488.245 21.998 485.442 24.6641C482.64 27.3301 479.812 28.6631 474.958 28.6631ZM462.756 44.4766C462.756 37.6242 468.311 32.0693 475.163 32.0693C482.015 32.0693 487.57 37.6242 487.57 44.4766V125.072C487.57 131.925 482.015 137.479 475.163 137.479C468.311 137.479 462.756 131.925 462.756 125.072V44.4766Z" fill="black"/>
<path d="M635.891 28.8906C648.947 28.8906 658.791 33.334 665.422 42.2207C672.121 51.1074 675.471 63.9248 675.471 80.6729V125.226C675.471 131.993 669.985 137.479 663.217 137.479C656.45 137.479 650.964 131.993 650.964 125.226V81.1855C650.964 71.1367 649.016 63.7197 645.119 58.9346C641.291 54.1494 635.822 51.7568 628.713 51.7568C624.27 51.7568 620.1 53.124 616.203 55.8584C612.307 58.5244 609.162 62.2842 606.77 67.1377C604.445 71.9912 603.283 77.4941 603.283 83.6465V125.226C603.283 131.993 597.797 137.479 591.03 137.479C584.262 137.479 578.776 131.993 578.776 125.226V81.1855C578.776 71.1367 576.828 63.7197 572.932 58.9346C569.104 54.1494 563.669 51.7568 556.628 51.7568C552.185 51.7568 548.015 53.124 544.118 55.8584C540.222 58.5244 537.077 62.2842 534.685 67.1377C532.36 71.9912 531.198 77.4941 531.198 83.6465V125.226C531.198 131.993 525.712 137.479 518.945 137.479C512.177 137.479 506.691 131.993 506.691 125.226V43.7649C506.691 37.3056 511.928 32.0693 518.387 32.0693C524.761 32.0693 529.961 37.1729 530.08 43.5456L530.173 48.4756C532.976 42.7334 537.385 38.0508 543.4 34.4277C549.416 30.7363 556.218 28.8906 563.806 28.8906C572.556 28.8906 579.87 30.9072 585.749 34.9404C591.628 38.9736 596.037 44.8867 598.977 52.6797C603.42 44.6816 608.752 38.7344 614.973 34.8379C621.262 30.873 628.234 28.8906 635.891 28.8906Z" fill="black"/>
<path d="M735.915 140.658C726.618 140.658 718.176 138.163 710.588 133.173C703 128.183 697.053 121.415 692.746 112.87C688.439 104.325 686.286 94.96 686.286 84.7744C686.286 74.6572 688.439 65.3262 692.746 56.7812C697.121 48.2363 703.068 41.4688 710.588 36.4785C718.176 31.4199 726.584 28.8906 735.812 28.8906C744.426 28.8906 752.048 30.7705 758.679 34.5303C765.378 38.2217 770.437 43.3486 773.854 49.9111V43.8613C773.854 37.3488 779.134 32.0693 785.646 32.0693C792.159 32.0693 797.438 37.3488 797.438 43.8613V125.688C797.438 132.2 792.159 137.479 785.646 137.479C779.134 137.479 773.854 132.2 773.854 125.688V119.74C770.437 126.303 765.378 131.43 758.679 135.121C752.048 138.812 744.46 140.658 735.915 140.658ZM741.862 117.689C747.536 117.689 752.731 116.254 757.448 113.383C762.233 110.443 765.993 106.479 768.728 101.488C771.462 96.4297 772.829 90.8584 772.829 84.7744C772.829 78.7588 771.428 73.2559 768.625 68.2656C765.891 63.207 762.165 59.208 757.448 56.2686C752.731 53.3291 747.536 51.8594 741.862 51.8594C736.188 51.8594 730.993 53.2607 726.276 56.0635C721.56 58.7979 717.8 62.6602 714.997 67.6504C712.263 72.6406 710.896 78.3486 710.896 84.7744C710.896 91.4053 712.297 97.2158 715.1 102.206C717.902 107.196 721.662 111.024 726.379 113.69C731.096 116.356 736.257 117.689 741.862 117.689Z" fill="black"/>
<defs>
<filter id="filter0_f" x="0" y="108" width="811" height="79" filterUnits="userSpaceOnUse" color-interpolation-filters="sRGB">
<feFlood flood-opacity="0" result="BackgroundImageFix"/>
<feBlend mode="normal" in="SourceGraphic" in2="BackgroundImageFix" result="shape"/>
<feGaussianBlur stdDeviation="16" result="effect1_foregroundBlur"/>
</filter>
</defs>
</svg>
