<svg width="235" height="108" viewBox="0 0 235 108" fill="none" xmlns="http://www.w3.org/2000/svg">
<path d="M34.2859 54.66C30.4871 54.66 27.14 53.9693 24.2445 52.588C21.3755 51.18 19.1175 48.9619 17.4705 45.9335C15.8235 42.9052 15 39.04 15 34.3381V17.2438C15 14.603 17.1408 12.4622 19.7816 12.4622V12.4622C22.4224 12.4622 24.5632 14.603 24.5632 17.2438V34.0592C24.5632 37.8579 25.3735 40.7535 26.9939 42.7458C28.6409 44.7116 31.0583 45.6945 34.246 45.6945C37.4338 45.6945 39.8379 44.6983 41.4583 42.7059C43.0787 40.7136 43.8889 37.8313 43.8889 34.0592V17.2637C43.8889 14.6119 46.0387 12.4622 48.6905 12.4622V12.4622C51.3423 12.4622 53.492 14.6119 53.492 17.2637V34.3381C53.492 39.04 52.6685 42.9052 51.0215 45.9335C49.3745 48.9353 47.1165 51.1402 44.2476 52.5481C41.3786 53.956 38.058 54.66 34.2859 54.66Z" fill="black"/>
<path d="M60.0459 4.82223C60.0459 2.1594 62.2045 0.000758987 64.8674 0.000758987V0.000758987C67.5302 0.000758987 69.6888 2.1594 69.6888 4.82223V48.6033C69.6888 51.2661 67.5302 53.4247 64.8674 53.4247V53.4247C62.2045 53.4247 60.0459 51.2661 60.0459 48.6033V4.82223Z" fill="black"/>
<path d="M90.0885 53.4247C86.1835 53.4247 82.9426 52.3489 80.3659 50.1972C77.7891 48.0189 76.5007 43.9014 76.5007 37.8446V20.7503V12.4622V4.86148C76.5007 2.2142 78.6352 0.0620537 81.2823 0.0401761V0.0401761C83.9607 0.0180414 86.1437 2.18308 86.1437 4.86148V12.4622H94.2724C96.5611 12.4622 98.4165 14.3176 98.4165 16.6063V16.6063C98.4165 18.895 96.5611 20.7503 94.2724 20.7503H86.1437V38.2829C86.1437 43.038 88.1227 45.4155 92.0808 45.4155H94.4119C96.6236 45.4155 98.4165 47.2085 98.4165 49.4201V49.4201C98.4165 51.6318 96.6236 53.4247 94.4119 53.4247H90.0885Z" fill="black"/>
<path d="M109.025 11.1385C107.219 11.1385 106.16 10.6205 105.071 9.58449C104.008 8.52191 103.477 7.19368 103.477 5.59981C103.477 4.0325 104.008 2.73084 105.071 1.69482C106.16 0.632237 107.232 0.100945 109.065 0.100945C110.925 0.100945 112.01 0.632237 113.099 1.69482C114.189 2.73084 114.733 4.0325 114.733 5.59981C114.733 7.22025 114.189 8.54848 113.099 9.58449C112.01 10.6205 110.911 11.1385 109.025 11.1385ZM104.283 17.2837C104.283 14.6208 106.442 12.4622 109.105 12.4622V12.4622C111.768 12.4622 113.926 14.6208 113.926 17.2837V48.6033C113.926 51.2661 111.768 53.4247 109.105 53.4247V53.4247C106.442 53.4247 104.283 51.2661 104.283 48.6033V17.2837Z" fill="black"/>
<path d="M171.564 11.2269C176.638 11.2269 180.463 12.9536 183.04 16.407C185.643 19.8604 186.945 24.8413 186.945 31.3496V48.663C186.945 51.2929 184.813 53.4247 182.183 53.4247V53.4247C179.553 53.4247 177.421 51.2929 177.421 48.6631V31.5488C177.421 27.6438 176.664 24.7616 175.15 22.9021C173.662 21.0425 171.537 20.1128 168.775 20.1128C167.048 20.1128 165.427 20.6441 163.913 21.7067C162.399 22.7427 161.177 24.2037 160.247 26.0898C159.344 27.9759 158.893 30.1143 158.893 32.5052V48.6631C158.893 51.2929 156.761 53.4247 154.131 53.4247V53.4247C151.501 53.4247 149.369 51.2929 149.369 48.6631V31.5488C149.369 27.6438 148.612 24.7616 147.098 22.9021C145.61 21.0425 143.498 20.1128 140.762 20.1128C139.036 20.1128 137.415 20.6441 135.901 21.7067C134.387 22.7427 133.165 24.2037 132.235 26.0898C131.332 27.9759 130.88 30.1143 130.88 32.5052V48.6631C130.88 51.2929 128.748 53.4247 126.119 53.4247V53.4247C123.489 53.4247 121.357 51.2929 121.357 48.6631V17.0071C121.357 14.497 123.392 12.4622 125.902 12.4622V12.4622C128.379 12.4622 130.399 14.4455 130.446 16.9219L130.482 18.8377C131.571 16.6063 133.284 14.7866 135.622 13.3787C137.96 11.9442 140.603 11.2269 143.552 11.2269C146.952 11.2269 149.794 12.0106 152.079 13.5779C154.363 15.1452 156.077 17.443 157.219 20.4714C158.946 17.3634 161.018 15.0522 163.435 13.5381C165.879 11.9973 168.589 11.2269 171.564 11.2269Z" fill="black"/>
<path d="M210.434 54.66C206.821 54.66 203.54 53.6904 200.591 51.7512C197.643 49.812 195.332 47.1821 193.658 43.8615C191.984 40.5409 191.148 36.9016 191.148 32.9435C191.148 29.0119 191.984 25.3859 193.658 22.0653C195.358 18.7447 197.669 16.1148 200.591 14.1756C203.54 12.2098 206.807 11.2269 210.394 11.2269C213.741 11.2269 216.703 11.9575 219.279 13.4185C221.883 14.853 223.849 16.8453 225.177 19.3955V17.0446C225.177 14.5138 227.228 12.4622 229.759 12.4622V12.4622C232.29 12.4622 234.342 14.5138 234.342 17.0446V48.8424C234.342 51.3731 232.29 53.4247 229.759 53.4247V53.4247C227.228 53.4247 225.177 51.3731 225.177 48.8424V46.5312C223.849 49.0814 221.883 51.0738 219.279 52.5083C216.703 53.9428 213.754 54.66 210.434 54.66ZM212.745 45.7343C214.949 45.7343 216.968 45.1764 218.801 44.0607C220.661 42.9185 222.122 41.3777 223.184 39.4385C224.247 37.4727 224.778 35.3077 224.778 32.9435C224.778 30.6058 224.234 28.4673 223.145 26.5281C222.082 24.5624 220.634 23.0083 218.801 21.866C216.968 20.7238 214.949 20.1526 212.745 20.1526C210.54 20.1526 208.521 20.6972 206.688 21.7864C204.855 22.8489 203.394 24.3498 202.305 26.289C201.242 28.2283 200.711 30.4464 200.711 32.9435C200.711 35.5202 201.255 37.7782 202.345 39.7174C203.434 41.6566 204.895 43.1443 206.728 44.1803C208.561 45.2163 210.566 45.7343 212.745 45.7343Z" fill="black"/>
<g filter="url(#filter0_f)">
<ellipse cx="101.1" cy="79.5" rx="86.1" ry="4.5" fill="#C4C4C4" fill-opacity="0.8"/>
</g>
<defs>
<filter id="filter0_f" x="-9" y="51" width="220.2" height="57" filterUnits="userSpaceOnUse" color-interpolation-filters="sRGB">
<feFlood flood-opacity="0" result="BackgroundImageFix"/>
<feBlend mode="normal" in="SourceGraphic" in2="BackgroundImageFix" result="shape"/>
<feGaussianBlur stdDeviation="12" result="effect1_foregroundBlur"/>
</filter>
</defs>
</svg>
