<svg width="30" height="30" viewBox="0 0 30 30" fill="none" xmlns="http://www.w3.org/2000/svg">
<path d="M29.3353 15.0048C29.3416 14.1185 28.6282 13.4051 27.742 13.4114L14.9041 13.5025C14.0179 13.5088 13.2943 14.2324 13.288 15.1187C13.2817 16.0049 13.9951 16.7183 14.8814 16.712L27.7192 16.6209C28.6054 16.6146 29.329 15.891 29.3353 15.0048Z" fill="black"/>
<path d="M14.8814 16.712C13.9951 16.7183 13.2817 16.0049 13.288 15.1187L13.3791 2.28085C13.3854 1.39458 14.109 0.671018 14.9953 0.664728C15.8815 0.658436 16.5949 1.3718 16.5886 2.25806L16.4975 15.0959C16.4912 15.9822 15.7676 16.7057 14.8814 16.712Z" fill="black"/>
<path d="M15.0047 29.3353C14.1185 29.3416 13.4051 28.6282 13.4114 27.742L13.5025 14.9042C13.5088 14.0179 14.2324 13.2943 15.1186 13.288C16.0049 13.2817 16.7183 13.9951 16.712 14.8814L16.6209 27.7192C16.6146 28.6055 15.891 29.329 15.0047 29.3353Z" fill="black"/>
<path d="M16.712 14.8814C16.7183 13.9951 16.0049 13.2817 15.1186 13.288L2.28083 13.3792C1.39456 13.3854 0.670998 14.109 0.664707 14.9953C0.658416 15.8815 1.37178 16.5949 2.25804 16.5886L15.0959 16.4975C15.9821 16.4912 16.7057 15.7676 16.712 14.8814Z" fill="black"/>
</svg>
